<svg width="21" height="21" viewBox="0 0 34 34" fill="none" xmlns="http://www.w3.org/2000/svg">
<path d="M3.66351 2.23772C3.48565 2.14876 3.28639 2.1115 3.0884 2.13019C2.89041 2.14887 2.70164 2.22275 2.54356 2.34341C2.38548 2.46408 2.26444 2.62668 2.19421 2.81273C2.12397 2.99879 2.10736 3.20082 2.14626 3.39584L5.12764 13.7021C5.18323 13.8942 5.29189 14.0666 5.44112 14.1997C5.59035 14.3328 5.77411 14.421 5.97126 14.4543L18.0625 16.4795C18.632 16.5921 18.632 17.4081 18.0625 17.5207L5.97126 19.5458C5.77411 19.5791 5.59035 19.6674 5.44112 19.8005C5.29189 19.9335 5.18323 20.106 5.12764 20.2981L2.14626 30.6043C2.10736 30.7994 2.12397 31.0014 2.19421 31.1875C2.26444 31.3735 2.38548 31.5361 2.54356 31.6568C2.70164 31.7774 2.89041 31.8513 3.0884 31.87C3.28639 31.8887 3.48565 31.8514 3.66351 31.7625L31.2885 17.95C31.4648 17.8616 31.613 17.726 31.7165 17.5582C31.8201 17.3905 31.8749 17.1972 31.8749 17.0001C31.8749 16.8029 31.8201 16.6097 31.7165 16.4419C31.613 16.2742 31.4648 16.1386 31.2885 16.0502L3.66351 2.23772Z" fill="#8A8A8A"/>
</svg>
