<svg width="55" height="55" viewBox="0 0 55 55" fill="none" xmlns="http://www.w3.org/2000/svg">
<rect width="55" height="55" rx="27.5" fill="#2A2A2A"/>
<rect x="21.9004" y="6" width="12.0401" height="4.30002" rx="2.15001" fill="#E9B05A"/>
<rect x="24.9561" y="19.4683" width="10.9804" height="5.06788" rx="2.53394" transform="rotate(-90 24.9561 19.4683)" fill="#E9B05A"/>
<circle cx="27.9201" cy="30.0798" r="18.9201" fill="#E9B05A"/>
<circle cx="27.92" cy="30.0797" r="15.4801" fill="#FFEFCF"/>
<ellipse cx="21.578" cy="26.6478" rx="1.68929" ry="2.11162" fill="#714D29"/>
<ellipse cx="33.4022" cy="26.6478" rx="1.68929" ry="2.11162" fill="#714D29"/>
<path d="M16.1456 32.0846C14.7799 32.3528 13.4272 31.5745 13.1802 30.4796C12.8913 29.1985 13.9064 28.1084 15.3033 27.9371C16.5089 27.7893 17.5265 28.3926 17.9061 29.0173C18.4197 29.8626 18.2456 30.8086 17.4753 31.4623C17.1079 31.774 16.6793 31.9766 16.1456 32.0846Z" fill="#FFCFAC"/>
<path d="M39.2935 32.0846C38.1555 32.3528 37.0282 31.5745 36.8224 30.4796C36.5816 29.1985 37.4275 28.1084 38.5916 27.9371C39.5963 27.7893 40.4442 28.3926 40.7606 29.0173C41.1886 29.8626 41.0435 30.8086 40.4017 31.4623C40.0955 31.774 39.7383 31.9766 39.2935 32.0846Z" fill="#FFCFAC"/>
<path d="M27.2637 39.3609C27.8169 39.2359 28.1196 39.4596 28.1217 39.9953C28.1241 40.6218 28.1119 41.2485 28.0923 41.8747C28.0809 42.2371 27.7883 42.4732 27.4 42.461C27.0707 42.4506 26.8264 42.2067 26.8311 41.8549C26.8399 41.1901 26.8604 40.5252 26.89 39.861C26.9001 39.6349 27.0219 39.4608 27.2637 39.3609Z" fill="#E8AF58"/>
<path d="M25.3688 34.8949C25.5179 34.7607 25.6669 34.6265 25.8414 34.4795C25.8667 34.4668 25.8884 34.4594 25.8884 34.4594C25.8884 34.4594 25.8909 34.4598 25.8992 34.4495C25.9329 34.4261 25.9583 34.4132 25.9838 34.4002C25.9838 34.4002 25.9928 34.3956 26.0099 34.3834C26.1546 34.3065 26.2822 34.2416 26.4169 34.1614C26.458 34.1378 26.492 34.1295 26.5233 34.1206C26.5206 34.12 26.5202 34.1252 26.5299 34.1089C26.5912 34.0846 26.6427 34.0765 26.7068 34.0679C26.7194 34.0674 26.7435 34.0604 26.7569 34.0461C26.9456 34.0246 27.121 34.0174 27.3154 34.0135C27.3598 34.0136 27.3852 34.0106 27.4152 33.9882C27.7865 33.9992 28.1531 34.0295 28.5412 34.0631C28.9582 34.169 29.3152 34.3319 29.5862 34.629C29.5862 34.629 29.5817 34.6302 29.5959 34.6331C29.6212 34.6512 29.6323 34.6664 29.6435 34.6816C29.6435 34.6816 29.6373 34.6822 29.6518 34.6845C29.6771 34.7024 29.6879 34.7179 29.6987 34.7334C29.6987 34.7334 29.6927 34.7339 29.7071 34.7364C29.7318 34.7545 29.7423 34.7701 29.7527 34.7857C29.7527 34.7857 29.7477 34.7861 29.7618 34.7889C29.7856 34.8072 29.7953 34.8227 29.8051 34.8382C29.8051 34.8382 29.8015 34.8391 29.8175 34.8456C29.8636 34.898 29.8937 34.9439 29.9237 34.9898C29.9237 34.9898 29.9173 34.9897 29.9385 34.99C30.124 35.1188 30.2979 35.2216 30.5366 35.1568C30.5981 35.1286 30.6514 35.1188 30.7008 35.1091C30.6969 35.1091 30.7005 35.1156 30.7042 35.0988C30.7408 35.0704 30.7737 35.0589 30.8065 35.0473C30.8065 35.0473 30.8032 35.0458 30.8091 35.0351C30.8309 35.0147 30.8467 35.005 30.8626 34.9953C30.8626 34.9953 30.8587 34.9947 30.8585 34.9751C30.8624 34.76 30.8664 34.5645 30.8685 34.37C30.8666 34.3711 30.8709 34.3715 30.8514 34.3677C30.7876 34.2783 30.7434 34.1926 30.698 34.1102C30.6969 34.1134 30.7042 34.1134 30.6881 34.1091C30.6631 34.0866 30.6543 34.0684 30.6457 34.0551C30.6461 34.0601 30.6561 34.0563 30.6365 34.0549C30.5863 34.0055 30.5557 33.9576 30.5251 33.9097C30.473 33.8549 30.4209 33.8001 30.3473 33.7249C30.3138 33.6894 30.3018 33.6742 30.2898 33.659C30.2898 33.659 30.2978 33.6586 30.2822 33.6576C30.2543 33.6419 30.2419 33.6272 30.2295 33.6126C30.2295 33.6126 30.2384 33.6118 30.2204 33.6103C30.1586 33.574 30.115 33.5392 30.0713 33.5044C30.0713 33.5044 30.0763 33.5033 30.0611 33.5014C30.0137 33.4768 29.9815 33.4542 29.9494 33.4315C29.9494 33.4315 29.9384 33.4299 29.9214 33.4232C29.8904 33.404 29.874 33.3994 29.8486 33.4109C29.8313 33.4072 29.8205 33.395 29.8084 33.3857C29.8071 33.3885 29.8137 33.3881 29.7943 33.3899C29.7494 33.3697 29.7241 33.3478 29.6976 33.3298C29.6966 33.3338 29.7052 33.332 29.6856 33.3356C29.6401 33.3172 29.6142 33.2952 29.587 33.277C29.5855 33.2808 29.5941 33.2794 29.5746 33.2833C29.5283 33.2661 29.5016 33.2449 29.4732 33.2273C29.4714 33.2309 29.4799 33.2315 29.4586 33.235C29.3566 33.1997 29.2759 33.1609 29.1932 33.1255C29.1911 33.1288 29.1991 33.1312 29.1752 33.1338C28.8492 33.086 28.5472 33.0356 28.2324 32.9974C28.1538 33.001 28.0879 32.9923 28.0012 32.9836C27.9386 32.9829 27.8969 32.9822 27.8304 32.9822C27.5063 32.9995 27.2069 33.0161 26.8844 33.034C26.6889 33.0507 26.5166 33.0662 26.3477 33.0802C26.351 33.0787 26.3467 33.0731 26.3424 33.0923C26.1909 33.1527 26.0437 33.1939 25.9001 33.236C25.9038 33.2368 25.9036 33.2298 25.8967 33.2463C25.8539 33.2692 25.818 33.2756 25.7863 33.2821C25.7905 33.2822 25.7872 33.275 25.7842 33.2941C25.6323 33.371 25.4833 33.4287 25.3387 33.4883C25.343 33.4901 25.3429 33.4813 25.3381 33.4986C25.2983 33.5252 25.2634 33.5346 25.2322 33.545C25.2359 33.5459 25.2359 33.5388 25.23 33.5546C25.1911 33.5806 25.1581 33.5908 25.1263 33.602C25.1276 33.6029 25.1274 33.5999 25.1212 33.6129C25.0966 33.6337 25.0783 33.6415 25.0646 33.6495C25.0692 33.6495 25.0674 33.6413 25.0629 33.6564C25.0386 33.6795 25.0188 33.6876 25.0043 33.6953C25.0097 33.6949 25.0052 33.6859 25.0042 33.7044C24.8896 33.8164 24.7759 33.9099 24.6671 34.0057C24.6718 34.0081 24.6733 33.9981 24.6708 34.0138C24.6496 34.0396 24.6309 34.0498 24.6169 34.0612C24.6217 34.0624 24.6221 34.0532 24.6179 34.0682C24.5954 34.0937 24.5771 34.1041 24.5465 34.1181C24.5194 34.1324 24.513 34.1464 24.5136 34.181C24.4887 34.2206 24.4652 34.2429 24.447 34.2668C24.4524 34.2684 24.4532 34.258 24.45 34.2729C24.4295 34.299 24.4122 34.3102 24.3844 34.323C24.3739 34.3247 24.3536 34.3303 24.3536 34.3303C24.3536 34.3303 24.3521 34.3263 24.3494 34.3419C24.3116 34.3996 24.2766 34.4418 24.2417 34.484C24.2417 34.484 24.2402 34.4801 24.2402 34.4928C24.2401 34.5056 24.241 34.531 24.2508 34.5368C24.2469 34.5516 24.2331 34.5607 24.2224 34.5717C24.2253 34.5735 24.2251 34.5669 24.2289 34.5859C24.1912 34.6636 24.1497 34.7225 24.1113 34.7844C24.1144 34.7874 24.121 34.7817 24.1233 34.8052C24.1432 35.0258 24.1608 35.2227 24.1789 35.4291C24.1793 35.4384 24.1836 35.4567 24.1836 35.4567C24.1836 35.4567 24.2051 35.4597 24.2381 35.4603C24.5048 35.4793 24.7385 35.4977 24.9721 35.5161C24.9721 35.5161 24.9659 35.5142 24.9697 35.5025C24.9917 35.4811 25.0099 35.4713 25.028 35.4616C25.028 35.4616 25.0217 35.4613 25.0211 35.4443C25.1367 35.2499 25.2527 35.0724 25.3688 34.8949Z" fill="#714D29"/>
</svg>
