<svg width="20" height="22" viewBox="0 0 18 23" fill="none" xmlns="http://www.w3.org/2000/svg">
<path d="M1.125 0H16.875C17.1734 0 17.4595 0.117383 17.6705 0.326326C17.8815 0.535268 18 0.818655 18 1.11415V22.4422C18.0001 22.5418 17.9733 22.6397 17.9223 22.7255C17.8712 22.8113 17.7979 22.8821 17.7099 22.9303C17.6219 22.9786 17.5225 23.0025 17.4219 22.9998C17.3214 22.997 17.2234 22.9676 17.1382 22.9146L9 17.8597L0.86175 22.9135C0.776664 22.9665 0.678811 22.9959 0.578365 22.9987C0.477919 23.0015 0.378547 22.9776 0.290582 22.9295C0.202617 22.8814 0.12927 22.8108 0.0781682 22.7251C0.0270661 22.6394 7.47797e-05 22.5417 0 22.4422V1.11415C0 0.818655 0.118527 0.535268 0.329505 0.326326C0.540484 0.117383 0.826631 0 1.125 0ZM15.75 2.22829H2.25V19.4218L9 15.2315L15.75 19.4218V2.22829Z" fill="#666666"/>
</svg>
