<svg width="20" height="20" viewBox="0 0 20 20" fill="none" xmlns="http://www.w3.org/2000/svg">
<path d="M17.5 1.30438C17.8315 1.30438 18.1495 1.4418 18.3839 1.68642C18.6183 1.93104 18.75 2.26281 18.75 2.60875V13.0438C18.75 13.3897 18.6183 13.7215 18.3839 13.9661C18.1495 14.2107 17.8315 14.3481 17.5 14.3481H14.375C13.9869 14.3481 13.6041 14.4424 13.257 14.6236C12.9098 14.8047 12.6079 15.0676 12.375 15.3916L10 18.6956L7.625 15.3916C7.39213 15.0676 7.09017 14.8047 6.74303 14.6236C6.3959 14.4424 6.01311 14.3481 5.625 14.3481H2.5C2.16848 14.3481 1.85054 14.2107 1.61612 13.9661C1.3817 13.7215 1.25 13.3897 1.25 13.0438V2.60875C1.25 2.26281 1.3817 1.93104 1.61612 1.68642C1.85054 1.4418 2.16848 1.30438 2.5 1.30438H17.5ZM2.5 0C1.83696 0 1.20107 0.27485 0.732233 0.764086C0.263392 1.25332 0 1.91687 0 2.60875L0 13.0438C0 13.7356 0.263392 14.3992 0.732233 14.8884C1.20107 15.3777 1.83696 15.6525 2.5 15.6525H5.625C5.81906 15.6525 6.01045 15.6997 6.18402 15.7902C6.35759 15.8808 6.50857 16.0123 6.625 16.1743L9 19.4782C9.11643 19.6402 9.26741 19.7717 9.44098 19.8623C9.61455 19.9529 9.80594 20 10 20C10.1941 20 10.3854 19.9529 10.559 19.8623C10.7326 19.7717 10.8836 19.6402 11 19.4782L13.375 16.1743C13.4914 16.0123 13.6424 15.8808 13.816 15.7902C13.9896 15.6997 14.1809 15.6525 14.375 15.6525H17.5C18.163 15.6525 18.7989 15.3777 19.2678 14.8884C19.7366 14.3992 20 13.7356 20 13.0438V2.60875C20 1.91687 19.7366 1.25332 19.2678 0.764086C18.7989 0.27485 18.163 0 17.5 0L2.5 0Z" fill="#8A8A8A"/>
</svg>
