<svg width="55" height="55" viewBox="0 0 55 55" fill="none" xmlns="http://www.w3.org/2000/svg">
<rect width="55" height="55" rx="27.5" fill="#97D5AA"/>
<rect x="21.8999" y="6" width="12.04" height="4.3" rx="2.15" fill="#E9B05A"/>
<rect x="25.3398" y="19.7598" width="11.18" height="5.16" rx="2.58" transform="rotate(-90 25.3398 19.7598)" fill="#E9B05A"/>
<circle cx="27.92" cy="30.0802" r="18.92" fill="#E9B05A"/>
<circle cx="27.9199" cy="30.0801" r="15.48" fill="#FFEFCF"/>
<ellipse cx="21.9002" cy="27.0699" rx="1.72" ry="2.15" fill="#714D29"/>
<ellipse cx="33.9402" cy="27.0699" rx="1.72" ry="2.15" fill="#714D29"/>
<path d="M16.3694 32.6057C14.9789 32.8787 13.6015 32.0864 13.3501 30.9715C13.0559 29.6671 14.0894 28.5573 15.5117 28.3829C16.7393 28.2323 17.7753 28.8466 18.1619 29.4827C18.6848 30.3433 18.5075 31.3065 17.7233 31.972C17.3492 32.2895 16.9127 32.4957 16.3694 32.6057Z" fill="#FFCFAC"/>
<path d="M39.9378 32.6057C38.7791 32.8787 37.6313 32.0864 37.4218 30.9715C37.1766 29.6671 38.0379 28.5573 39.2231 28.3829C40.2461 28.2323 41.1095 28.8466 41.4316 29.4827C41.8674 30.3433 41.7196 31.3065 41.0661 31.972C40.7544 32.2895 40.3907 32.4957 39.9378 32.6057Z" fill="#FFCFAC"/>
<path d="M27.6891 40.0145C28.2524 39.8872 28.5606 40.115 28.5627 40.6605C28.5652 41.2983 28.5528 41.9364 28.5328 42.574C28.5212 42.9429 28.2233 43.1833 27.8279 43.1709C27.4927 43.1604 27.2439 42.912 27.2487 42.5538C27.2576 41.8769 27.2785 41.2 27.3087 40.5237C27.3189 40.2935 27.443 40.1162 27.6891 40.0145Z" fill="#E8AF58"/>
<path d="M25.7603 35.0124C25.9121 35.1491 26.0639 35.2857 26.2415 35.4353C26.2673 35.4483 26.2894 35.4558 26.2894 35.4558C26.2894 35.4558 26.2919 35.4554 26.3003 35.4659C26.3346 35.4897 26.3606 35.5029 26.3865 35.5161C26.3865 35.5161 26.3957 35.5208 26.4131 35.5332C26.5604 35.6115 26.6903 35.6775 26.8275 35.7592C26.8693 35.7833 26.904 35.7917 26.9358 35.8007C26.9331 35.8013 26.9326 35.7961 26.9426 35.8126C27.0049 35.8374 27.0573 35.8457 27.1226 35.8544C27.1355 35.8549 27.16 35.862 27.1736 35.8766C27.3658 35.8985 27.5444 35.9058 27.7423 35.9098C27.7875 35.9097 27.8133 35.9128 27.8439 35.9356C28.2219 35.9244 28.5953 35.8935 28.9904 35.8593C29.415 35.7515 29.7784 35.5856 30.0544 35.2831C30.0544 35.2831 30.0498 35.2819 30.0642 35.2789C30.09 35.2605 30.1013 35.245 30.1127 35.2296C30.1127 35.2296 30.1064 35.229 30.1212 35.2266C30.1469 35.2084 30.1579 35.1926 30.1689 35.1768C30.1689 35.1768 30.1628 35.1763 30.1774 35.1737C30.2027 35.1553 30.2133 35.1394 30.2239 35.1236C30.2239 35.1236 30.2188 35.1232 30.2331 35.1203C30.2574 35.1016 30.2673 35.0859 30.2772 35.0701C30.2772 35.0701 30.2736 35.0692 30.2899 35.0626C30.3368 35.0093 30.3674 34.9625 30.398 34.9158C30.398 34.9158 30.3915 34.9159 30.4131 34.9155C30.6019 34.7845 30.779 34.6798 31.022 34.7458C31.0847 34.7745 31.1389 34.7844 31.1892 34.7943C31.1852 34.7943 31.1889 34.7877 31.1927 34.8048C31.2299 34.8337 31.2634 34.8454 31.2969 34.8572C31.2969 34.8572 31.2935 34.8587 31.2995 34.8696C31.3217 34.8904 31.3378 34.9003 31.3539 34.9102C31.3539 34.9102 31.35 34.9108 31.3498 34.9307C31.3538 35.1497 31.3578 35.3488 31.36 35.5468C31.3581 35.5457 31.3624 35.5453 31.3425 35.5491C31.2776 35.6402 31.2326 35.7274 31.1864 35.8114C31.1852 35.8081 31.1927 35.8081 31.1763 35.8125C31.1509 35.8354 31.1419 35.854 31.1332 35.8674C31.1335 35.8623 31.1437 35.8662 31.1237 35.8677C31.0726 35.9179 31.0415 35.9667 31.0103 36.0155C30.9573 36.0713 30.9042 36.1271 30.8293 36.2036C30.7952 36.2398 30.783 36.2553 30.7708 36.2708C30.7708 36.2708 30.7789 36.2711 30.763 36.2722C30.7346 36.2882 30.722 36.3031 30.7093 36.318C30.7093 36.318 30.7185 36.3188 30.7001 36.3204C30.6372 36.3573 30.5927 36.3927 30.5483 36.4282C30.5483 36.4282 30.5534 36.4293 30.5379 36.4312C30.4896 36.4562 30.4569 36.4793 30.4241 36.5023C30.4241 36.5023 30.413 36.504 30.3956 36.5109C30.3641 36.5303 30.3474 36.5351 30.3215 36.5233C30.3039 36.5271 30.2929 36.5395 30.2806 36.549C30.2793 36.5462 30.286 36.5465 30.2662 36.5448C30.2206 36.5653 30.1947 36.5876 30.1678 36.6059C30.1667 36.6018 30.1755 36.6037 30.1555 36.6C30.1092 36.6188 30.0829 36.6412 30.0551 36.6597C30.0537 36.6558 30.0624 36.6572 30.0426 36.6532C29.9955 36.6708 29.9683 36.6924 29.9393 36.7103C29.9375 36.7066 29.9462 36.706 29.9245 36.7025C29.8206 36.7384 29.7384 36.7779 29.6542 36.814C29.6521 36.8105 29.6602 36.8082 29.6359 36.8055C29.304 36.8542 28.9965 36.9055 28.6759 36.9444C28.5959 36.9408 28.5289 36.9496 28.4406 36.9585C28.3769 36.9592 28.3344 36.9599 28.2666 36.9599C27.9366 36.9423 27.6319 36.9254 27.3034 36.9072C27.1044 36.8901 26.929 36.8743 26.757 36.8601C26.7603 36.8616 26.756 36.8673 26.7516 36.8478C26.5974 36.7863 26.4475 36.7443 26.3013 36.7015C26.305 36.7006 26.3049 36.7077 26.2978 36.6909C26.2542 36.6676 26.2177 36.6611 26.1854 36.6545C26.1897 36.6545 26.1863 36.6618 26.1833 36.6423C26.0286 36.564 25.8769 36.5052 25.7296 36.4446C25.734 36.4427 25.7339 36.4517 25.729 36.4341C25.6886 36.407 25.653 36.3974 25.6212 36.3869C25.625 36.3859 25.625 36.3931 25.619 36.3771C25.5793 36.3506 25.5457 36.3402 25.5134 36.3288C25.5147 36.3279 25.5146 36.3309 25.5082 36.3177C25.4832 36.2965 25.4646 36.2885 25.4506 36.2805C25.4552 36.2804 25.4534 36.2888 25.4488 36.2734C25.4241 36.2499 25.4039 36.2417 25.3892 36.2338C25.3947 36.2342 25.3901 36.2434 25.3891 36.2246C25.2724 36.1105 25.1567 36.0153 25.0458 35.9177C25.0507 35.9154 25.0522 35.9254 25.0497 35.9095C25.0281 35.8832 25.009 35.8729 24.9947 35.8613C24.9996 35.86 25.0001 35.8694 24.9958 35.8541C24.9729 35.8282 24.9542 35.8175 24.923 35.8033C24.8955 35.7888 24.8889 35.7745 24.8896 35.7392C24.8643 35.699 24.8403 35.6763 24.8218 35.6519C24.8272 35.6503 24.8281 35.6609 24.8248 35.6457C24.8039 35.6191 24.7863 35.6077 24.758 35.5946C24.7474 35.593 24.7267 35.5872 24.7267 35.5872C24.7267 35.5872 24.7252 35.5913 24.7223 35.5755C24.6839 35.5167 24.6483 35.4738 24.6127 35.4308C24.6127 35.4308 24.6112 35.4348 24.6112 35.4218C24.6111 35.4088 24.612 35.3829 24.622 35.377C24.618 35.3619 24.604 35.3526 24.593 35.3415C24.5961 35.3396 24.5958 35.3464 24.5997 35.3271C24.5613 35.2478 24.5191 35.188 24.48 35.1249C24.4831 35.1218 24.4899 35.1277 24.4922 35.1037C24.5124 34.8791 24.5304 34.6786 24.5488 34.4685C24.5492 34.459 24.5536 34.4404 24.5536 34.4404C24.5536 34.4404 24.5755 34.4373 24.6091 34.4367C24.8806 34.4174 25.1185 34.3986 25.3564 34.3799C25.3564 34.3799 25.3501 34.3818 25.354 34.3937C25.3764 34.4156 25.3948 34.4255 25.4133 34.4354C25.4133 34.4354 25.4069 34.4357 25.4063 34.453C25.524 34.651 25.6421 34.8317 25.7603 35.0124Z" fill="#714D29"/>
</svg>
