<svg width="20" height="22" viewBox="0 0 23 23" fill="none" xmlns="http://www.w3.org/2000/svg">
<path d="M11.5 0C6.89735 0 3.01831 3.19373 1.76923 7.55566C0.652846 8.22877 0 9.5254 0 11.0434C0 13.2443 1.34019 15.029 3.53846 15.029C3.77308 15.029 3.99808 14.9356 4.16398 14.7696C4.32988 14.6035 4.42308 14.3782 4.42308 14.1433V7.94359C4.42308 7.53618 4.13381 7.21645 3.75962 7.11283C5.05115 3.94035 8.03231 1.71732 11.5 1.71732C14.9677 1.71732 17.9488 3.94035 19.2404 7.11371C18.8662 7.21734 18.5769 7.53618 18.5769 7.94359V14.1433C18.5769 14.3782 18.6701 14.6035 18.836 14.7696C19.0019 14.9356 19.2269 15.029 19.4615 15.029C19.6677 15.029 19.8517 15.0042 20.0418 14.9732C19.7561 16.6258 19.0626 17.8578 18.3558 18.7107C17.9942 19.1512 17.576 19.542 17.112 19.8727C16.9806 19.9667 16.8419 20.0499 16.6971 20.1216C16.6458 20.1464 16.6033 20.1694 16.5865 20.1774H14.9279C14.6094 19.251 13.5957 18.5716 12.3846 18.5716C10.9188 18.5716 9.73077 19.5636 9.73077 20.7858C9.73077 22.008 10.9188 23 12.3846 23C13.5957 23 14.6094 22.3198 14.9279 21.3943H16.6697C16.9687 21.3943 17.0448 21.3146 17.2226 21.2287C17.3995 21.1419 17.6092 21.0241 17.8303 20.8691C18.2726 20.5591 18.8078 20.1074 19.3235 19.4848C20.2559 18.36 21.1246 16.6905 21.3413 14.448C22.3852 13.7536 23 12.5066 23 11.0434C23 9.5254 22.3472 8.22966 21.2308 7.55566C19.9817 3.19373 16.1027 0.000885673 11.5 0.000885673V0Z" fill="#666666"/>
</svg>
