<svg width="13" height="15" viewBox="0 0 13 15" fill="none" xmlns="http://www.w3.org/2000/svg">
<path d="M6.88537 13.8177L6.87822 13.819L6.83207 13.8417L6.81907 13.8443L6.80997 13.8417L6.76382 13.819C6.75688 13.8168 6.75168 13.8179 6.74822 13.8222L6.74562 13.8287L6.73457 14.1069L6.73782 14.1199L6.74432 14.1284L6.81192 14.1765L6.82167 14.1791L6.82947 14.1765L6.89707 14.1284L6.90487 14.118L6.90747 14.1069L6.89642 13.8294C6.89468 13.8225 6.891 13.8186 6.88537 13.8177ZM7.05762 13.7442L7.04917 13.7455L6.92892 13.806L6.92242 13.8125L6.92047 13.8196L6.93217 14.0991L6.93542 14.1069L6.94062 14.1115L7.07127 14.1719C7.0795 14.1741 7.08578 14.1724 7.09012 14.1667L7.09272 14.1576L7.07062 13.7585C7.06845 13.7507 7.06412 13.746 7.05762 13.7442ZM6.59287 13.7455C6.59 13.7438 6.58658 13.7432 6.58331 13.744C6.58004 13.7447 6.57718 13.7466 6.57532 13.7494L6.57142 13.7585L6.54932 14.1576C6.54975 14.1654 6.55343 14.1706 6.56037 14.1732L6.57012 14.1719L6.70077 14.1115L6.70727 14.1063L6.70987 14.0991L6.72092 13.8196L6.71897 13.8118L6.71247 13.8053L6.59287 13.7455Z" fill="#666666"/>
<path d="M6.5 0C10.0899 0 13 2.91005 13 6.5C13 10.0899 10.0899 13 6.5 13C2.91005 13 0 10.0899 0 6.5C0 2.91005 2.91005 0 6.5 0ZM6.5 1.3C5.12087 1.3 3.79823 1.84786 2.82304 2.82304C1.84786 3.79823 1.3 5.12087 1.3 6.5C1.3 7.87913 1.84786 9.20177 2.82304 10.177C3.79823 11.1521 5.12087 11.7 6.5 11.7C7.87913 11.7 9.20177 11.1521 10.177 10.177C11.1521 9.20177 11.7 7.87913 11.7 6.5C11.7 5.12087 11.1521 3.79823 10.177 2.82304C9.20177 1.84786 7.87913 1.3 6.5 1.3ZM6.4935 5.2C6.8562 5.2 7.15 5.4938 7.15 5.8565V9.1871C7.27391 9.25865 7.37075 9.36908 7.4255 9.50127C7.48025 9.63346 7.48986 9.78003 7.45282 9.91823C7.41579 10.0564 7.33419 10.1786 7.22068 10.2657C7.10716 10.3528 6.96808 10.4 6.825 10.4H6.5065C6.42029 10.4 6.33492 10.383 6.25527 10.35C6.17562 10.317 6.10325 10.2687 6.04228 10.2077C5.98132 10.1468 5.93296 10.0744 5.89997 9.99473C5.86698 9.91508 5.85 9.82971 5.85 9.7435V6.5C5.67761 6.5 5.51228 6.43152 5.39038 6.30962C5.26848 6.18772 5.2 6.02239 5.2 5.85C5.2 5.67761 5.26848 5.51228 5.39038 5.39038C5.51228 5.26848 5.67761 5.2 5.85 5.2H6.4935ZM6.5 3.25C6.67239 3.25 6.83772 3.31848 6.95962 3.44038C7.08152 3.56228 7.15 3.72761 7.15 3.9C7.15 4.07239 7.08152 4.23772 6.95962 4.35962C6.83772 4.48152 6.67239 4.55 6.5 4.55C6.32761 4.55 6.16228 4.48152 6.04038 4.35962C5.91848 4.23772 5.85 4.07239 5.85 3.9C5.85 3.72761 5.91848 3.56228 6.04038 3.44038C6.16228 3.31848 6.32761 3.25 6.5 3.25Z" fill="#666666"/>
</svg>
