<svg width="46" height="46" viewBox="0 0 46 46" fill="none" xmlns="http://www.w3.org/2000/svg">
<g clip-path="url(#clip0_1073_1469)">
<rect width="46" height="46" rx="23" fill="#5E5E5E"/>
<path d="M-0.614188 7.40746C-0.602456 8.59656 0.716397 11.3392 0.943934 12.7114C-0.65081 12.6819 -2.06488 11.5106 -5.61504 12.5767C-7.84974 13.4268 -7.27141 12.4162 -9.41446 16.1799C-10.623 18.4451 -10.2646 19.2988 -9.6925 21.6177C-7.16557 25.907 -2.8332 25.8229 -1.09038 27.6404C1.42147 28.9827 -4.02453 30.9159 -4.95697 31.7522C-7.35439 34.7348 -7.28643 36.2642 -6.23041 38.7234C-3.71135 41.9451 -2.58241 42.429 1.90268 42.9832C4.80209 42.7787 6.16614 43.2786 8.81063 42.3272C9.12879 42.2127 12.2341 40.9439 12.3229 41.3533C12.5032 42.1836 13.0124 43.2547 13.7409 44.2512C14.4694 45.2478 15.3312 46.0314 15.946 46.9427C17.5433 49.3104 19.666 49.2806 22.3975 49.0105C24.7113 48.7818 25.7279 48.9883 27.6497 47.8362C29.2289 46.8894 29.6435 46.5243 30.6651 45.1709C30.8843 44.8805 31.9557 42.2768 32.4614 42.5533C33.2645 42.9923 33.9896 43.3363 34.6855 43.8298C37.8551 45.1709 38.8496 45.7173 41.9557 45.6867C43.9658 45.6668 44.5012 45.9764 47.8013 43.5091C48.9481 42.252 49.8053 40.8437 49.7905 39.3411C49.7725 37.5217 49.8385 36.7636 49.1373 35.0408C48.675 33.9051 48.3304 32.3497 47.4361 31.4407C46.9849 30.9821 45.7729 30.6029 45.7053 29.9417C45.6078 28.987 48.114 28.0949 48.7063 28.089C51.0608 27.7193 50.4433 27.9626 53.3673 26.7307C55.7856 24.2656 56.105 24.4092 56.0731 21.1807L56.0725 21.1102C56.0596 19.7683 56.0436 18.1083 54.8955 17.1187C52.721 15.2444 52.7047 14.8126 49.7044 14.768C49.0825 14.7587 45.4841 15.2929 46.4061 14.1681C46.9206 13.5404 47.3942 12.8705 47.9859 12.2974C52.8256 7.6098 48.2896 0.133155 40.9077 1.18067C38.2024 1.88847 37.3174 4.03723 35.3078 4.45052C34.3377 4.65004 33.6571 2.05967 33.6517 1.51928C33.1551 -0.555793 32.1523 -1.68896 30.3578 -3.06324C28.1436 -4.75888 24.9156 -3.86887 22.4983 -3.07499C19.2676 -2.01395 18.3563 1.56012 17.6541 4.54988C17.4052 5.60975 15.0427 2.68541 14.6086 2.35569C13.7642 1.71431 13.2085 0.973004 12.351 0.476861C10.1312 -0.80747 6.77672 -0.763267 4.28932 0.237192C0.489007 1.76572 -0.646137 4.16955 -0.614188 7.40746Z" fill="#FFB356" stroke="#453D3C" stroke-width="1.27908" stroke-linecap="round"/>
<path d="M4.64058 12.4747C4.5981 14.251 5.03922 15.087 4.71121 16.8323C4.30254 18.8236 2.51807 20.6666 2.09697 22.7184C1.28534 26.6731 1.59524 30.1951 3.6526 33.7678C4.31958 34.9261 5.24282 35.6816 6.37074 36.4077C7.62139 37.2129 9.44886 37.8565 10.9079 38.2326C16.3421 39.6336 21.5933 40.1215 27.1381 39.6039L27.2337 39.595C31.9181 39.1579 37.1499 38.6697 40.0867 34.8686C42.3033 31.9997 44.1677 27.621 42.7017 24.0414C41.7364 21.6843 40.1209 19.4116 38.554 17.3423C37.8955 16.4727 38.2011 16.1319 38.4169 15.002C38.6476 13.7943 38.698 12.1672 38.2572 10.9989C37.7844 9.74608 37.1766 9.27367 36.3018 8.22085C34.4492 7.46231 33.3046 7.56147 31.3876 8.08131C30.051 9.26836 29.0103 9.51853 28.664 11.2058C28.5303 11.8572 28.2833 13.3213 27.4127 13.4901C26.3637 13.6935 24.8131 13.3358 23.7218 13.2614C22.4734 13.1763 22.3156 13.2883 21.0723 13.3474C19.9774 13.3994 19.0351 13.4337 17.9889 13.748C17.2571 13.9678 15.2749 14.3874 15.4959 13.3105C15.122 11.4153 14.9034 10.628 14.1419 9.28116C12.1464 7.41936 12.0732 8.0391 10.7648 7.77056C9.44929 7.50058 8.61343 7.94323 7.34327 8.28472C5.45352 8.79279 4.28061 10.7614 4.64058 12.4747Z" fill="#FFF3A1" stroke="#453D3C" stroke-width="1.27908" stroke-linecap="round"/>
<circle cx="14.6924" cy="23.4036" r="2.61535" transform="rotate(9.06371 14.6924 23.4036)" fill="#453D3C"/>
<path d="M14.6081 22.8877C14.4935 23.0545 13.7348 23.1398 13.824 22.8621C13.9531 22.4603 14.3541 22.194 14.7561 22.1563C14.9425 22.1388 15.1253 22.1747 15.3084 22.2039C15.4465 22.2259 15.4074 22.3529 15.3574 22.4622C15.1957 22.8156 13.9889 22.7845 14.0159 22.6865C14.1549 22.1822 15.0361 22.3593 15.3834 22.4147C15.509 22.4348 15.6105 22.4229 15.5151 22.5591C15.346 22.8005 15.065 22.8615 14.7938 22.9247C14.4651 23.0014 14.1716 23.0128 13.8373 22.9637C13.8077 22.9593 13.4522 22.9362 13.451 22.88C13.4447 22.5894 13.8273 22.5219 14.0404 22.4988" stroke="white" stroke-width="1.15117" stroke-linecap="round"/>
<path d="M14.2236 24.6864C14.4021 24.7294 14.6268 24.7168 14.8022 24.6539" stroke="white" stroke-width="1.3814" stroke-linecap="round"/>
<circle cx="29.0852" cy="23.6246" r="2.61535" transform="rotate(9.06371 29.0852 23.6246)" fill="#453D3C"/>
<path d="M29.7784 22.9567C29.7239 23.0216 29.5683 23.0343 29.5056 23.0427C29.1577 23.0896 28.8029 23.0818 28.4541 23.0498C28.2754 23.0334 28.096 22.9995 27.9192 22.9691C27.6435 22.9218 27.9818 22.6595 28.0865 22.576C28.2394 22.454 28.4396 22.4271 28.6289 22.4144C28.8145 22.4018 29.0108 22.3504 29.1961 22.3613C29.3518 22.3704 29.6353 22.3904 29.777 22.4571C29.8506 22.4917 29.8731 22.6639 29.8919 22.7345C29.9678 23.0199 29.5075 22.8854 29.3825 22.8655C29.3795 22.865 28.8143 22.8101 29.0282 22.67C29.2621 22.5169 29.624 22.6512 29.8769 22.6915" stroke="white" stroke-width="1.15117" stroke-linecap="round"/>
<path d="M29.0889 24.7224C28.9918 24.7668 28.8957 24.7463 28.7961 24.7269C28.7341 24.7148 28.675 24.7212 28.6158 24.6954" stroke="white" stroke-width="1.3814" stroke-linecap="round"/>
<path d="M21.9157 29.1526C21.0795 29.3416 21.1985 28.5082 21.7232 28.2025C21.9338 28.0798 22.9337 27.8967 22.917 28.3016C22.8979 28.7658 22.7494 29.1888 22.2139 29.1033C21.6668 29.0161 22.2057 28.6085 22.4136 28.4578" stroke="#453D3C" stroke-width="1.3814" stroke-linecap="round"/>
<path d="M9.31079 15.4668C9.4502 14.5686 9.84019 13.1671 10.4647 13.1671C10.7459 13.1671 10.6992 14.335 10.6992 14.6669C10.6992 15.4574 9.77825 15.4668 9.43421 15.4668C9.10347 15.4668 9.55465 14.9825 9.64093 14.9113C9.83369 14.7523 9.93055 14.267 10.1439 14.267" stroke="#E2D57E" stroke-width="1.27908" stroke-linecap="round"/>
<path d="M33.7247 13.5795C33.9096 12.7559 34.8774 10.8989 34.8431 12.8767C34.8354 13.3211 34.8898 13.8819 34.8146 14.3138C34.7359 14.7653 34.3009 14.4427 34.1687 14.2446C33.9767 13.957 33.7179 13.7736 33.6123 13.39C33.5022 12.9896 33.7219 12.3829 34.011 12.2906C34.2677 12.2087 34.4964 11.9002 34.5208 12.4942C34.5383 12.9227 34.5093 13.3631 34.5019 13.7924" stroke="#E2D57E" stroke-width="1.27908" stroke-linecap="round"/>
</g>
<defs>
<clipPath id="clip0_1073_1469">
<rect width="46" height="46" rx="23" fill="white"/>
</clipPath>
</defs>
</svg>
