<svg width="82" height="24" viewBox="0 0 82 24" fill="none" xmlns="http://www.w3.org/2000/svg">
<g clip-path="url(#clip0_2014_3751)">
<path d="M10.368 19.048L7.536 15.304L4.656 19.624C4.368 20.08 4.008 20.056 3.6 19.744L0.936002 17.728C0.480002 17.392 0.408002 16.984 0.720002 16.504L4.512 10.984C4.8 10.528 4.896 10.072 4.896 9.496V2.488C4.896 1.648 5.208 1.336 5.88 1.336H9.192C9.864 1.336 10.176 1.648 10.176 2.488V9.616C10.176 10.192 10.248 10.648 10.56 11.104L14.184 16.096C14.496 16.552 14.544 16.888 14.088 17.248L11.376 19.264C10.992 19.528 10.656 19.456 10.368 19.048ZM15.048 18.04V3.016C15.048 2.224 15.384 1.816 16.08 1.816H19.296C19.992 1.816 20.328 2.224 20.328 3.016V18.04C20.328 18.832 19.992 19.24 19.296 19.24H16.08C15.384 19.24 15.048 18.832 15.048 18.04ZM31.9774 19.048L29.1454 15.304L26.2654 19.624C25.9774 20.08 25.6174 20.056 25.2094 19.744L22.5454 17.728C22.0894 17.392 22.0174 16.984 22.3294 16.504L26.1214 10.984C26.4094 10.528 26.5054 10.072 26.5054 9.496V2.488C26.5054 1.648 26.8174 1.336 27.4894 1.336H30.8014C31.4734 1.336 31.7854 1.648 31.7854 2.488V9.616C31.7854 10.192 31.8574 10.648 32.1694 11.104L35.7934 16.096C36.1054 16.552 36.1534 16.888 35.6974 17.248L32.9854 19.264C32.6014 19.528 32.2654 19.456 31.9774 19.048ZM36.6574 18.04V3.016C36.6574 2.224 36.9934 1.816 37.6894 1.816H40.9054C41.6014 1.816 41.9374 2.224 41.9374 3.016V18.04C41.9374 18.832 41.6014 19.24 40.9054 19.24H37.6894C36.9934 19.24 36.6574 18.832 36.6574 18.04ZM59.7788 20.104L51.0428 20.536V21.088L59.5868 20.848C60.1628 20.824 60.3308 21.016 60.3308 21.568V22.96C60.3308 23.512 60.1628 23.656 59.5868 23.656L46.7708 23.896C46.0268 23.92 45.8828 23.728 45.8588 22.984L45.7148 19.168C45.6908 18.424 45.8828 18.256 46.6268 18.232L55.5308 17.776V17.296L45.8588 17.536C45.3788 17.536 45.2348 17.296 45.2348 16.984V15.352C45.2348 14.992 45.3788 14.752 45.8588 14.752L59.9948 14.512C60.7388 14.512 60.9788 14.68 60.9068 15.424L60.6908 19.216C60.6188 19.912 60.5228 20.08 59.7788 20.104ZM60.1388 9.688H56.8268C56.1548 9.688 55.8188 9.376 55.8428 8.584L46.0988 8.776C45.5228 8.776 45.2348 8.512 45.2348 8.008V6.136C45.2348 5.632 45.5228 5.368 46.0988 5.368L55.9148 5.176L55.9388 4.408L45.6428 4.624C45.0668 4.648 44.7788 4.408 44.7788 3.856V1.864C44.7788 1.36 45.0668 1.096 45.6428 1.096L60.3548 0.856003C61.0988 0.856003 61.3628 1.168 61.3388 2.008L61.1228 8.536C61.0988 9.376 60.8348 9.688 60.1388 9.688ZM60.5708 13.888L45.5468 14.128C44.9708 14.128 44.6828 13.864 44.6828 13.36V11.392C44.6828 10.888 44.9708 10.624 45.5468 10.624L48.8828 10.576V10.384C48.8828 9.544 49.1948 9.232 49.8668 9.232H53.1788C53.8748 9.232 54.1628 9.544 54.1628 10.384V10.504L60.5708 10.384C61.1468 10.384 61.4348 10.648 61.4348 11.152V13.12C61.4348 13.624 61.1468 13.888 60.5708 13.888ZM79.4663 20.104L70.7303 20.536V21.088L79.2743 20.848C79.8503 20.824 80.0183 21.016 80.0183 21.568V22.96C80.0183 23.512 79.8503 23.656 79.2743 23.656L66.4583 23.896C65.7143 23.92 65.5703 23.728 65.5463 22.984L65.4023 19.168C65.3783 18.424 65.5703 18.256 66.3143 18.232L75.2183 17.776V17.296L65.5463 17.536C65.0663 17.536 64.9223 17.296 64.9223 16.984V15.352C64.9223 14.992 65.0663 14.752 65.5463 14.752L79.6823 14.512C80.4263 14.512 80.6663 14.68 80.5943 15.424L80.3783 19.216C80.3063 19.912 80.2103 20.08 79.4663 20.104ZM79.8263 9.688H76.5143C75.8423 9.688 75.5063 9.376 75.5303 8.584L65.7863 8.776C65.2103 8.776 64.9223 8.512 64.9223 8.008V6.136C64.9223 5.632 65.2103 5.368 65.7863 5.368L75.6023 5.176L75.6263 4.408L65.3303 4.624C64.7543 4.648 64.4663 4.408 64.4663 3.856V1.864C64.4663 1.36 64.7543 1.096 65.3303 1.096L80.0423 0.856003C80.7863 0.856003 81.0503 1.168 81.0263 2.008L80.8103 8.536C80.7863 9.376 80.5223 9.688 79.8263 9.688ZM80.2583 13.888L65.2343 14.128C64.6583 14.128 64.3703 13.864 64.3703 13.36V11.392C64.3703 10.888 64.6583 10.624 65.2343 10.624L68.5703 10.576V10.384C68.5703 9.544 68.8823 9.232 69.5543 9.232H72.8663C73.5623 9.232 73.8503 9.544 73.8503 10.384V10.504L80.2583 10.384C80.8343 10.384 81.1223 10.648 81.1223 11.152V13.12C81.1223 13.624 80.8343 13.888 80.2583 13.888Z" fill="#025397"/>
</g>
<defs>
<clipPath id="clip0_2014_3751">
<rect width="82" height="24" fill="white"/>
</clipPath>
</defs>
</svg>
