<svg width="21" height="20" viewBox="0 0 21 20" fill="none" xmlns="http://www.w3.org/2000/svg">
<path d="M10.5 10C11.8261 10 13.0979 9.47322 14.0355 8.53553C14.9732 7.59785 15.5 6.32608 15.5 5C15.5 3.67392 14.9732 2.40215 14.0355 1.46447C13.0979 0.526784 11.8261 0 10.5 0C9.17392 0 7.90215 0.526784 6.96447 1.46447C6.02678 2.40215 5.5 3.67392 5.5 5C5.5 6.32608 6.02678 7.59785 6.96447 8.53553C7.90215 9.47322 9.17392 10 10.5 10ZM13.8333 5C13.8333 5.88405 13.4821 6.7319 12.857 7.35702C12.2319 7.98214 11.3841 8.33333 10.5 8.33333C9.61594 8.33333 8.7681 7.98214 8.14298 7.35702C7.51786 6.7319 7.16667 5.88405 7.16667 5C7.16667 4.11594 7.51786 3.2681 8.14298 2.64298C8.7681 2.01786 9.61594 1.66667 10.5 1.66667C11.3841 1.66667 12.2319 2.01786 12.857 2.64298C13.4821 3.2681 13.8333 4.11594 13.8333 5ZM20.5 18.3333C20.5 20 18.8333 20 18.8333 20H2.16667C2.16667 20 0.5 20 0.5 18.3333C0.5 16.6667 2.16667 11.6667 10.5 11.6667C18.8333 11.6667 20.5 16.6667 20.5 18.3333ZM18.8333 18.3267C18.8317 17.9167 18.5767 16.6833 17.4467 15.5533C16.36 14.4667 14.315 13.3333 10.5 13.3333C6.685 13.3333 4.64 14.4667 3.55333 15.5533C2.42333 16.6833 2.17 17.9167 2.16667 18.3267H18.8333Z" fill="#8A8A8A"/>
</svg>
