<svg width="55" height="55" viewBox="0 0 55 55" fill="none" xmlns="http://www.w3.org/2000/svg">
<rect width="55" height="55" rx="27.5" fill="#8A8A8A"/>
<rect x="21.8999" y="6" width="12.04" height="4.3" rx="2.15" fill="#D0D0D0"/>
<rect x="25.3398" y="19.7598" width="11.18" height="5.16" rx="2.58" transform="rotate(-90 25.3398 19.7598)" fill="#D0D0D0"/>
<circle cx="27.92" cy="30.0802" r="18.92" fill="#D0D0D0"/>
<circle cx="27.9199" cy="30.0801" r="15.48" fill="#F6F6F6"/>
<ellipse cx="21.9002" cy="27.0699" rx="1.72" ry="2.15" fill="#525252"/>
<ellipse cx="33.9402" cy="27.0699" rx="1.72" ry="2.15" fill="#525252"/>
<path d="M16.3694 32.6057C14.9789 32.8787 13.6015 32.0864 13.3501 30.9715C13.0559 29.6671 14.0894 28.5573 15.5117 28.3829C16.7393 28.2323 17.7753 28.8466 18.1619 29.4827C18.6848 30.3433 18.5075 31.3065 17.7233 31.972C17.3492 32.2895 16.9127 32.4957 16.3694 32.6057Z" fill="#989898"/>
<path d="M39.9378 32.6057C38.7791 32.8787 37.6313 32.0864 37.4218 30.9715C37.1766 29.6671 38.0379 28.5573 39.2231 28.3829C40.2461 28.2323 41.1095 28.8466 41.4316 29.4827C41.8674 30.3433 41.7196 31.3065 41.0661 31.972C40.7544 32.2895 40.3907 32.4957 39.9378 32.6057Z" fill="#989898"/>
<path d="M27.6891 40.0145C28.2524 39.8872 28.5606 40.115 28.5627 40.6605C28.5652 41.2983 28.5528 41.9364 28.5328 42.574C28.5212 42.9429 28.2233 43.1833 27.8279 43.1709C27.4927 43.1604 27.2439 42.912 27.2487 42.5538C27.2576 41.8769 27.2785 41.2 27.3087 40.5237C27.3189 40.2935 27.443 40.1162 27.6891 40.0145Z" fill="#D0D0D0"/>
</svg>
