<svg width="20" height="22" viewBox="0 0 21 23" fill="none" xmlns="http://www.w3.org/2000/svg">
<path d="M0 17.6333H11.5V15.3333H0V17.6333ZM11.5 13.0333H0V10.7333H11.5V13.0333ZM0 8.4333H4.6V6.1333H0V8.4333Z" fill="#666666"/>
<path fill-rule="evenodd" clip-rule="evenodd" d="M3.45 0C2.535 0 1.65748 0.363481 1.01048 1.01048C0.363481 1.65748 0 2.535 0 3.45V19.55C0 20.465 0.363481 21.3425 1.01048 21.9895C1.65748 22.6365 2.535 23 3.45 23H17.25C18.165 23 19.0425 22.6365 19.6895 21.9895C20.3365 21.3425 20.7 20.465 20.7 19.55V8.05C20.7 5.91501 19.8519 3.86746 18.3422 2.35779C16.8325 0.848122 14.785 0 12.65 0H3.45ZM3.45 2.3H11.5V8.05H18.4V19.55C18.4 19.855 18.2788 20.1475 18.0632 20.3632C17.8475 20.5788 17.555 20.7 17.25 20.7H3.45C3.145 20.7 2.85249 20.5788 2.63683 20.3632C2.42116 20.1475 2.3 19.855 2.3 19.55V3.45C2.3 3.145 2.42116 2.85249 2.63683 2.63683C2.85249 2.42116 3.145 2.3 3.45 2.3ZM13.8 2.415C14.7038 2.60026 15.55 2.99988 16.2672 3.58024C16.9844 4.1606 17.5518 4.90471 17.9216 5.75H13.8V2.415Z" fill="#666666"/>
</svg>
