<svg width="34" height="34" viewBox="0 0 34 34" fill="none" xmlns="http://www.w3.org/2000/svg">
<path d="M5.66671 5.66683H9.91671L12.75 2.8335H21.25L24.0834 5.66683H28.3334C29.0848 5.66683 29.8055 5.96534 30.3368 6.49669C30.8682 7.02805 31.1667 7.74872 31.1667 8.50016V25.5002C31.1667 26.2516 30.8682 26.9723 30.3368 27.5036C29.8055 28.035 29.0848 28.3335 28.3334 28.3335H5.66671C4.91526 28.3335 4.19459 28.035 3.66324 27.5036C3.13188 26.9723 2.83337 26.2516 2.83337 25.5002V8.50016C2.83337 7.74872 3.13188 7.02805 3.66324 6.49669C4.19459 5.96534 4.91526 5.66683 5.66671 5.66683ZM17 9.91683C15.1214 9.91683 13.3198 10.6631 11.9914 11.9915C10.663 13.3199 9.91671 15.1215 9.91671 17.0002C9.91671 18.8788 10.663 20.6805 11.9914 22.0088C13.3198 23.3372 15.1214 24.0835 17 24.0835C18.8787 24.0835 20.6803 23.3372 22.0087 22.0088C23.3371 20.6805 24.0834 18.8788 24.0834 17.0002C24.0834 15.1215 23.3371 13.3199 22.0087 11.9915C20.6803 10.6631 18.8787 9.91683 17 9.91683ZM17 12.7502C18.1272 12.7502 19.2082 13.1979 20.0052 13.995C20.8023 14.792 21.25 15.873 21.25 17.0002C21.25 18.1273 20.8023 19.2083 20.0052 20.0054C19.2082 20.8024 18.1272 21.2502 17 21.2502C15.8729 21.2502 14.7919 20.8024 13.9948 20.0054C13.1978 19.2083 12.75 18.1273 12.75 17.0002C12.75 15.873 13.1978 14.792 13.9948 13.995C14.7919 13.1979 15.8729 12.7502 17 12.7502Z" fill="#8A8A8A"/>
</svg>
