<svg width="24" height="24" viewBox="0 0 24 24" fill="none" xmlns="http://www.w3.org/2000/svg">
<path d="M18.7799 5.2201C17.3231 3.75878 15.4341 2.80577 13.3931 2.50233C11.352 2.19889 9.26754 2.56116 7.44857 3.53546C5.6296 4.50976 4.17297 6.04422 3.29458 7.9114C2.4162 9.77858 2.16281 11.8791 2.57199 13.9016C2.98116 15.9241 4.03112 17.7609 5.56623 19.1398C7.10133 20.5187 9.03988 21.3663 11.0945 21.5569C13.1492 21.7475 15.2106 21.271 16.9731 20.1981C18.7357 19.1251 20.1057 17.5128 20.8799 15.6001H18.2159C17.4742 16.9101 16.3405 17.9548 14.9743 18.587C13.6081 19.2193 12.078 19.4074 10.5993 19.1249C9.12064 18.8424 7.76768 18.1035 6.73074 17.0121C5.6938 15.9208 5.02504 14.5318 4.8185 13.0406C4.61196 11.5494 4.87804 10.031 5.57932 8.69883C6.28059 7.36671 7.38179 6.28791 8.72804 5.61414C10.0743 4.94038 11.5979 4.70555 13.0845 4.94267C14.5712 5.1798 15.9461 5.87696 17.0159 6.9361L13.1999 10.8001H21.5999V2.4001L18.7799 5.2201Z" fill="#8A8A8A"/>
</svg>
