<svg width="24" height="24" viewBox="0 0 24 24" fill="none" xmlns="http://www.w3.org/2000/svg">
<path d="M8.673 12.942H9.673V10.135C9.673 9.50033 9.901 8.957 10.357 8.505C10.8123 8.053 11.36 7.827 12 7.827V6.827C11.08 6.827 10.2953 7.14833 9.646 7.791C8.99733 8.433 8.673 9.21433 8.673 10.135V12.942ZM4.616 20C4.17133 20 3.791 19.8417 3.475 19.525C3.159 19.2083 3.00067 18.8287 3 18.386V16.866C3 16.422 3.15833 16.042 3.475 15.726C3.79167 15.41 4.17167 15.2517 4.615 15.251H5.827V10.136C5.827 8.42667 6.426 6.97667 7.624 5.786C8.822 4.59533 10.2807 4 12 4C13.7193 4 15.178 4.59533 16.376 5.786C17.574 6.97667 18.173 8.42633 18.173 10.135V15.25H19.385C19.829 15.25 20.209 15.4083 20.525 15.725C20.841 16.0417 20.9993 16.4217 21 16.865V18.385C21 18.829 20.8417 19.209 20.525 19.525C20.2083 19.841 19.8283 19.9993 19.385 20H4.616Z" fill="#C75352"/>
</svg>
