<svg width="55" height="55" viewBox="0 0 55 55" fill="none" xmlns="http://www.w3.org/2000/svg">
<rect width="55" height="55" rx="27.5" fill="#FF8887"/>
<rect x="22.7598" y="6" width="11.18" height="4.3" rx="2.15" fill="#E9B05A"/>
<rect x="26.2002" y="19.7598" width="12.04" height="4.3" rx="2.15" transform="rotate(-90 26.2002 19.7598)" fill="#E9B05A"/>
<circle cx="27.92" cy="30.0802" r="18.92" fill="#E9B05A"/>
<circle cx="27.9199" cy="30.0801" r="15.48" fill="#FFEFCF"/>
<ellipse cx="22.76" cy="27.0699" rx="1.72" ry="2.15" fill="#714D29"/>
<ellipse cx="33.9402" cy="27.0699" rx="1.72" ry="2.15" fill="#714D29"/>
<path d="M16.3694 32.6057C14.9789 32.8787 13.6015 32.0864 13.3501 30.9715C13.0559 29.6671 14.0894 28.5573 15.5117 28.3829C16.7393 28.2323 17.7753 28.8466 18.1619 29.4827C18.6848 30.3433 18.5075 31.3065 17.7233 31.972C17.3492 32.2895 16.9127 32.4957 16.3694 32.6057Z" fill="#FFCFAC"/>
<path d="M39.9378 32.6057C38.7791 32.8787 37.6313 32.0864 37.4218 30.9715C37.1766 29.6671 38.0379 28.5573 39.2231 28.3829C40.2461 28.2323 41.1095 28.8466 41.4316 29.4827C41.8674 30.3433 41.7196 31.3065 41.0661 31.972C40.7544 32.2895 40.3907 32.4957 39.9378 32.6057Z" fill="#FFCFAC"/>
<path d="M27.7955 39.9632C28.362 39.8351 28.672 40.0642 28.6741 40.6128C28.6766 41.2543 28.6641 41.896 28.644 42.5372C28.6324 42.9083 28.3327 43.1501 27.9351 43.1376C27.5979 43.127 27.3478 42.8773 27.3525 42.517C27.3615 41.8362 27.3825 41.1554 27.4129 40.4753C27.4232 40.2437 27.548 40.0654 27.7955 39.9632Z" fill="#E8AF58"/>
<rect x="24.48" y="35.2402" width="6.88" height="0.86" rx="0.43" fill="#714D29"/>
</svg>
