<svg width="169" height="49" viewBox="0 0 169 49" fill="none" xmlns="http://www.w3.org/2000/svg">
<g clip-path="url(#clip0_1969_5186)">
<path d="M21.6001 38.1L15.7001 30.3L9.7001 39.3C9.1001 40.25 8.3501 40.2 7.5001 39.55L1.9501 35.35C1.0001 34.65 0.850098 33.8 1.5001 32.8L9.4001 21.3C10.0001 20.35 10.2001 19.4 10.2001 18.2V3.59995C10.2001 1.84995 10.8501 1.19995 12.2501 1.19995H19.1501C20.5501 1.19995 21.2001 1.84995 21.2001 3.59995V18.45C21.2001 19.65 21.3501 20.6 22.0001 21.55L29.5501 31.95C30.2001 32.9 30.3001 33.6 29.3501 34.35L23.7001 38.55C22.9001 39.1 22.2001 38.95 21.6001 38.1ZM31.3501 36V4.69995C31.3501 3.04995 32.0501 2.19995 33.5001 2.19995H40.2001C41.6501 2.19995 42.3501 3.04995 42.3501 4.69995V36C42.3501 37.65 41.6501 38.5 40.2001 38.5H33.5001C32.0501 38.5 31.3501 37.65 31.3501 36ZM66.6196 38.1L60.7196 30.3L54.7196 39.3C54.1196 40.25 53.3696 40.2 52.5196 39.55L46.9696 35.35C46.0196 34.65 45.8696 33.8 46.5196 32.8L54.4196 21.3C55.0196 20.35 55.2196 19.4 55.2196 18.2V3.59995C55.2196 1.84995 55.8696 1.19995 57.2696 1.19995H64.1696C65.5696 1.19995 66.2196 1.84995 66.2196 3.59995V18.45C66.2196 19.65 66.3696 20.6 67.0196 21.55L74.5696 31.95C75.2196 32.9 75.3196 33.6 74.3696 34.35L68.7196 38.55C67.9196 39.1 67.2196 38.95 66.6196 38.1ZM76.3696 36V4.69995C76.3696 3.04995 77.0696 2.19995 78.5196 2.19995H85.2196C86.6696 2.19995 87.3696 3.04995 87.3696 4.69995V36C87.3696 37.65 86.6696 38.5 85.2196 38.5H78.5196C77.0696 38.5 76.3696 37.65 76.3696 36ZM124.539 40.3L106.339 41.2V42.35L124.139 41.85C125.339 41.8 125.689 42.2 125.689 43.35V46.25C125.689 47.4 125.339 47.7 124.139 47.7L97.4392 48.2C95.8892 48.25 95.5892 47.85 95.5392 46.3L95.2392 38.35C95.1892 36.8 95.5892 36.45 97.1392 36.4L115.689 35.45V34.45L95.5392 34.95C94.5392 34.95 94.2392 34.45 94.2392 33.8V30.4C94.2392 29.65 94.5392 29.15 95.5392 29.15L124.989 28.65C126.539 28.65 127.039 29 126.889 30.55L126.439 38.45C126.289 39.9 126.089 40.25 124.539 40.3ZM125.289 18.6H118.389C116.989 18.6 116.289 17.95 116.339 16.3L96.0392 16.7C94.8392 16.7 94.2392 16.15 94.2392 15.1V11.2C94.2392 10.15 94.8392 9.59995 96.0392 9.59995L116.489 9.19995L116.539 7.59995L95.0892 8.04995C93.8892 8.09995 93.2892 7.59995 93.2892 6.44995V2.29995C93.2892 1.24995 93.8892 0.69995 95.0892 0.69995L125.739 0.199951C127.289 0.199951 127.839 0.849951 127.789 2.59995L127.339 16.2C127.289 17.95 126.739 18.6 125.289 18.6ZM126.189 27.35L94.8892 27.85C93.6892 27.85 93.0892 27.3 93.0892 26.25V22.15C93.0892 21.1 93.6892 20.55 94.8892 20.55L101.839 20.45V20.05C101.839 18.3 102.489 17.65 103.889 17.65H110.789C112.239 17.65 112.839 18.3 112.839 20.05V20.3L126.189 20.05C127.389 20.05 127.989 20.6 127.989 21.65V25.75C127.989 26.8 127.389 27.35 126.189 27.35ZM165.555 40.3L147.355 41.2V42.35L165.155 41.85C166.355 41.8 166.705 42.2 166.705 43.35V46.25C166.705 47.4 166.355 47.7 165.155 47.7L138.455 48.2C136.905 48.25 136.605 47.85 136.555 46.3L136.255 38.35C136.205 36.8 136.605 36.45 138.155 36.4L156.705 35.45V34.45L136.555 34.95C135.555 34.95 135.255 34.45 135.255 33.8V30.4C135.255 29.65 135.555 29.15 136.555 29.15L166.005 28.65C167.555 28.65 168.055 29 167.905 30.55L167.455 38.45C167.305 39.9 167.105 40.25 165.555 40.3ZM166.305 18.6H159.405C158.005 18.6 157.305 17.95 157.355 16.3L137.055 16.7C135.855 16.7 135.255 16.15 135.255 15.1V11.2C135.255 10.15 135.855 9.59995 137.055 9.59995L157.505 9.19995L157.555 7.59995L136.105 8.04995C134.905 8.09995 134.305 7.59995 134.305 6.44995V2.29995C134.305 1.24995 134.905 0.69995 136.105 0.69995L166.755 0.199951C168.305 0.199951 168.855 0.849951 168.805 2.59995L168.355 16.2C168.305 17.95 167.755 18.6 166.305 18.6ZM167.205 27.35L135.905 27.85C134.705 27.85 134.105 27.3 134.105 26.25V22.15C134.105 21.1 134.705 20.55 135.905 20.55L142.855 20.45V20.05C142.855 18.3 143.505 17.65 144.905 17.65H151.805C153.255 17.65 153.855 18.3 153.855 20.05V20.3L167.205 20.05C168.405 20.05 169.005 20.6 169.005 21.65V25.75C169.005 26.8 168.405 27.35 167.205 27.35Z" fill="white"/>
</g>
<defs>
<clipPath id="clip0_1969_5186">
<rect width="169" height="49" fill="white"/>
</clipPath>
</defs>
</svg>
