<svg width="20" height="22" viewBox="0 0 26 23" fill="none" xmlns="http://www.w3.org/2000/svg">
<path d="M14.7987 0.00445875C8.27789 -0.174395 2.93569 5.05069 2.93569 11.5022H0.642517C0.0660209 11.5022 -0.215822 12.1921 0.194131 12.5881L3.76841 16.1652C4.02463 16.4207 4.42177 16.4207 4.67799 16.1652L8.25226 12.5881C8.34079 12.498 8.40061 12.3839 8.42417 12.26C8.44773 12.1361 8.43398 12.008 8.38466 11.8918C8.33534 11.7757 8.25265 11.6768 8.14702 11.6074C8.04138 11.5381 7.91753 11.5015 7.79107 11.5022H5.49789C5.49789 6.51985 9.5718 2.49564 14.5937 2.55951C19.3594 2.62339 23.3693 6.62205 23.4333 11.3745C23.4974 16.3696 19.4619 20.4449 14.4656 20.4449C12.403 20.4449 10.4942 19.7423 8.98249 18.5542C8.73711 18.3614 8.42925 18.2653 8.11745 18.2841C7.80565 18.303 7.51167 18.4355 7.29144 18.6564C6.75337 19.1929 6.79181 20.1 7.39393 20.5599C9.4068 22.147 11.8996 23.0071 14.4656 23C20.9352 23 26.1749 17.6727 25.9955 11.17C25.829 5.17845 20.8071 0.170537 14.7987 0.00445875ZM14.1453 6.3921C13.6201 6.3921 13.1845 6.82646 13.1845 7.35024V12.0515C13.1845 12.4987 13.4279 12.9203 13.8122 13.1502L17.8093 15.5136C18.2705 15.7819 18.8598 15.6286 19.1288 15.1815C19.3979 14.7216 19.2441 14.1339 18.7957 13.8656L15.1062 11.6811V7.33747C15.1062 6.82646 14.6706 6.3921 14.1453 6.3921Z" fill="#666666"/>
</svg>
