<svg width="20" height="20" viewBox="0 0 20 20" fill="none" xmlns="http://www.w3.org/2000/svg">
<path fill-rule="evenodd" clip-rule="evenodd" d="M12.5644 1.27574C13.3813 0.458898 14.4892 0 15.6443 0C16.7995 0 17.9074 0.458898 18.7243 1.27574C19.5411 2.09259 20 3.20046 20 4.35566C20 5.51085 19.5411 6.61873 18.7243 7.43557L9.90032 16.2595C9.39615 16.7637 9.10034 17.0595 8.76919 17.3172C8.37974 17.6223 7.96115 17.8812 7.51341 18.0939C7.13574 18.2734 6.73762 18.4064 6.06229 18.6315L2.96284 19.6641L2.21681 19.9134C1.9201 20.0124 1.60167 20.0268 1.29721 19.955C0.992757 19.8832 0.714324 19.7281 0.493137 19.5069C0.271949 19.2857 0.116754 19.0072 0.0449538 18.7028C-0.0268464 18.3983 -0.0124118 18.0799 0.0866387 17.7832L1.36846 13.9386C1.59357 13.2624 1.72659 12.8643 1.90612 12.4857C2.11945 12.0392 2.37836 11.6206 2.68285 11.2299C2.93958 10.9006 3.23632 10.6039 3.74049 10.0997L12.5644 1.27574ZM2.93028 18.2055L5.573 17.3237C6.30879 17.0781 6.62134 16.973 6.91249 16.8344C7.26721 16.6645 7.59992 16.4589 7.91061 16.2176C8.16455 16.0186 8.39896 15.787 8.94779 15.2381L15.9894 8.19648C15.024 7.85437 14.1476 7.29999 13.4249 6.5742C12.6997 5.85127 12.146 4.9749 11.8045 4.00962L4.76279 11.0513C4.21396 11.5992 3.98141 11.8327 3.78328 12.0875C3.54143 12.3976 3.33585 12.7303 3.16655 13.0856C3.02795 13.3768 2.92284 13.6893 2.67726 14.4251L1.79543 17.0697L2.93028 18.2055ZM12.9347 2.87756C12.9672 3.04034 13.0202 3.26173 13.1105 3.5194C13.3826 4.29803 13.8279 5.00475 14.4127 5.58632C14.9941 6.17108 15.7004 6.61635 16.4787 6.88861C16.7373 6.97884 16.9587 7.03186 17.1215 7.06442L17.7373 6.44862C18.2892 5.89286 18.5983 5.14102 18.5969 4.3578C18.5956 3.57458 18.2838 2.82383 17.73 2.27C17.1762 1.71618 16.4254 1.40444 15.6422 1.40307C14.859 1.4017 14.1071 1.71081 13.5514 2.26269L12.9347 2.87756Z" fill="#8A8A8A"/>
</svg>
